<?xml version="1.0" encoding="UTF-8" standalone="no"?>
<svg
   id="svg"
   version="1.1"
   width="400"
   height="400"
   viewBox="0, 0, 400,400"
   sodipodi:docname="osu.svg"
   inkscape:version="1.1.1 (3bf5ae0d25, 2021-09-20)"
   xmlns:inkscape="http://www.inkscape.org/namespaces/inkscape"
   xmlns:sodipodi="http://sodipodi.sourceforge.net/DTD/sodipodi-0.dtd"
   xmlns="http://www.w3.org/2000/svg"
   xmlns:svg="http://www.w3.org/2000/svg">
  <defs
     id="defs8" />
  <sodipodi:namedview
     id="namedview6"
     pagecolor="#ffffff"
     bordercolor="#666666"
     borderopacity="1.0"
     inkscape:pageshadow="2"
     inkscape:pageopacity="0.0"
     inkscape:pagecheckerboard="0"
     showgrid="false"
     inkscape:zoom="2.4465894"
     inkscape:cx="158.38375"
     inkscape:cy="236.45161"
     inkscape:window-width="1600"
     inkscape:window-height="877"
     inkscape:window-x="-8"
     inkscape:window-y="-8"
     inkscape:window-maximized="1"
     inkscape:current-layer="svg" />
  <g
     id="g1626"
     transform="translate(-29.553844,-25.792)">
    <path
       style="fill:#f2f2f2"
       d="M 203.62778,390.27784 C 138.28491,377.83372 88.768006,331.34496 72.626068,267.28742 69.996955,256.85406 69.553844,251.4156 69.553844,229.58087 c 0,-21.7845 0.446128,-27.28442 3.051497,-37.61912 8.6533,-34.32504 28.343489,-66.22355 53.855949,-87.24774 5.33099,-4.39314 9.37275,-8.506118 8.98169,-9.139957 -0.39107,-0.633837 0.29623,-1.152433 1.52732,-1.152433 1.2311,0 4.21062,-1.504875 6.62116,-3.344168 2.41054,-1.839292 10.26872,-6.165587 17.46262,-9.613989 50.75682,-24.330356 112.63357,-20.069376 159.19173,10.962323 6.41564,4.276121 14.73325,10.848464 18.48359,14.605204 3.75032,3.75675 6.81878,6.37 6.81878,5.80724 0,-0.56277 1.5917,1.11441 3.53712,3.72705 1.94542,2.61265 4.01065,4.6296 4.58942,4.4821 0.57874,-0.1475 1.05227,0.48535 1.05227,1.40632 0,0.92097 2.81046,5.38605 6.24544,9.9224 13.57885,17.93261 24.99406,44.25574 29.42927,67.86296 3.12244,16.61973 2.11259,53.01543 -1.88679,68.00122 -9.51613,35.65716 -28.71139,65.84351 -55.5545,87.36471 -20.92723,16.77815 -37.93759,25.33282 -63.46182,31.91545 -17.8167,4.59489 -49.30174,5.91289 -65.87081,2.7574 z m 60.94503,-18.48072 c 53.99859,-14.0924 92.87902,-52.81198 107.45812,-107.01358 2.4855,-9.24052 2.98626,-14.93673 3.03401,-34.51308 0.0522,-21.40568 -0.26932,-24.62018 -3.69482,-36.93914 -13.7892,-49.58923 -49.51893,-87.15375 -97.23,-102.222954 -42.22079,-13.335133 -88.81941,-6.341126 -126.16585,18.936294 -11.5278,7.80242 -30.46628,27.23851 -38.53159,39.544 -32.752212,49.97107 -31.871164,115.61846 2.20267,164.12195 22.65485,32.24878 58.6336,54.44336 98.28589,60.63067 12.98084,2.02552 42.37608,0.65685 54.64157,-2.54416 z"
       id="path123" />
    <path
       style="fill:#f2f2f2"
       d="m 141.09016,264.60577 c -4.46101,-1.01582 -9.59807,-3.52547 -12.56743,-6.13967 -1.87538,-1.65107 -4.92824,-5.67318 -6.50486,-8.5701 -1.10737,-2.03469 -1.53163,-3.15873 -3.04782,-8.07494 -0.29254,-0.94857 -0.42478,-4.23194 -0.42352,-10.51622 0.002,-9.02744 0.0133,-9.17385 0.96006,-12.20584 0.52703,-1.68784 1.46789,-4.17378 2.09082,-5.52432 1.38289,-2.99822 4.82471,-7.58003 7.41647,-9.87294 3.64449,-3.22426 10.92652,-6.27307 14.90775,-6.24153 1.08403,0.009 2.06125,-0.13072 2.1716,-0.30958 0.52292,-0.84754 8.99057,-0.0462 13.58402,1.28555 8.02147,2.32558 14.73338,8.31621 17.97411,16.04258 2.07559,4.94851 2.73753,8.45565 2.91544,15.44691 0.14737,5.79111 0.0847,6.76212 -0.68073,10.54125 -0.46369,2.2894 -1.07876,4.69434 -1.36683,5.34431 -0.28808,0.64995 -0.78595,1.87995 -1.10641,2.73331 -0.65282,1.73851 -1.52676,3.25367 -2.57497,4.46433 -0.38719,0.4472 -0.70398,1.0221 -0.70398,1.27753 0,0.25544 -0.13758,0.46443 -0.30575,0.46443 -0.16814,0 -1.52346,1.25405 -3.01179,2.78679 -2.29259,2.36098 -3.23199,3.04495 -6.14811,4.47639 -1.89313,0.92928 -3.90674,1.73105 -4.47467,1.78173 -0.56794,0.0507 -1.13289,0.23068 -1.25544,0.40002 -0.42194,0.58301 -3.57866,0.85776 -9.75914,0.84945 -3.68688,-0.005 -6.96227,-0.18291 -8.08882,-0.43944 z m 11.76853,-15.67971 c 2.27087,-0.78263 4.83596,-2.06203 5.17831,-2.58279 0.13909,-0.21158 0.25526,-0.71479 0.25816,-1.11826 0.003,-0.40345 0.23761,-0.92672 0.52158,-1.16279 0.28397,-0.23608 0.5163,-0.77861 0.5163,-1.20565 0,-0.42703 0.24136,-1.45534 0.53634,-2.28514 0.635,-1.78631 1.16564,-10.21522 0.833,-13.23172 -0.35497,-3.21897 -1.48918,-8.22508 -1.98065,-8.74202 -0.24417,-0.25683 -0.74247,-1.05311 -1.10732,-1.7695 -0.85143,-1.67179 -3.63308,-3.27975 -6.63096,-3.83307 -1.98469,-0.36632 -2.46081,-0.33328 -4.59094,0.31863 -1.71015,0.52338 -2.86968,1.16133 -4.13492,2.27495 -1.58605,1.39598 -1.86453,1.86846 -2.84241,4.82253 -1.92226,5.80693 -2.09074,14.05103 -0.42874,20.97883 0.17061,0.71114 0.238,1.29298 0.14975,1.29298 -0.0882,0 0.083,0.24382 0.38046,0.54182 0.29749,0.298 0.54089,0.73392 0.54089,0.96872 0,0.81813 3.28232,4.02626 4.99098,4.87817 1.45536,0.72562 2.04739,0.8301 3.83525,0.67683 1.16282,-0.0997 2.95154,-0.46983 3.97492,-0.82252 z"
       id="path162" />
    <path
       style="fill:#f2f2f2"
       d="m 202.18662,265.06831 c -1.32519,-0.18368 -2.95156,-0.48476 -3.61416,-0.66907 -0.66259,-0.18432 -1.60592,-0.33599 -2.09629,-0.33704 -1.40437,-0.003 -6.97107,-1.98582 -7.48063,-2.66451 -0.94791,-1.26252 0.0406,-6.59549 2.23244,-12.04357 0.75936,-1.8875 0.97946,-2.14487 1.99797,-2.33628 0.62954,-0.1183 1.50919,-0.0721 1.95479,0.10271 0.4456,0.17478 1.5072,0.50815 2.3591,0.7408 0.85192,0.23265 2.24595,0.62322 3.09785,0.8679 3.84543,1.10452 10.9131,0.83346 14.63446,-0.56126 1.58777,-0.59508 2.04401,-0.94907 2.43678,-1.8907 0.77802,-1.86526 0.6294,-4.16878 -0.33105,-5.13086 -1.50062,-1.50319 -3.02315,-2.09879 -12.43761,-4.86553 -1.70383,-0.50073 -3.63998,-1.18542 -4.30258,-1.52155 -0.66259,-0.33614 -1.80541,-0.91757 -2.53957,-1.29207 -1.68509,-0.85957 -5.16766,-4.293 -6.29597,-6.20716 -1.14394,-1.94065 -1.83596,-5.43141 -1.82973,-9.22972 0.009,-5.76894 1.4824,-9.75419 5.01636,-13.57246 3.11362,-3.36412 6.20713,-4.96837 13.39354,-6.94575 3.12997,-0.86123 10.8818,-0.70625 17.03817,0.34064 8.33974,1.41817 10.60247,2.77058 10.09258,6.03222 -0.28294,1.80995 -1.56217,6.40266 -2.44858,8.79094 -1.00641,2.71159 -1.5269,2.80415 -6.53303,1.16186 -3.79126,-1.24375 -4.28789,-1.32344 -8.16719,-1.31038 -6.46412,0.0218 -8.77724,1.06799 -8.77724,3.97003 0,2.35954 1.32365,3.34443 6.88412,5.12224 13.46742,4.30585 13.64938,4.39757 17.19854,8.66961 2.33152,2.80639 2.88904,4.0353 3.60705,7.95081 1.20592,6.57626 -0.19854,12.51397 -4.19074,17.71745 -2.74046,3.57194 -9.12693,7.18772 -15.23803,8.62719 -2.75536,0.64902 -12.33378,0.94474 -15.66135,0.48351 z"
       id="path201" />
    <path
       style="fill:#f2f2f2"
       d="m 272.45525,264.91456 c -10.01579,-1.30773 -13.7463,-2.88774 -18.17472,-7.69766 -2.87398,-3.12157 -4.44652,-6.11247 -5.79154,-11.01527 -0.95162,-3.46879 -1.0383,-5.25247 -1.22792,-25.26898 -0.19878,-20.98394 -0.17958,-21.54983 0.74797,-22.0471 1.27757,-0.6849 11.88635,-1.25484 15.33152,-0.82366 2.62981,0.32914 2.76558,0.4152 2.99157,1.89642 0.13021,0.8534 0.41116,10.56593 0.62433,21.5834 l 0.3876,20.03176 1.46034,2.35426 c 2.0523,3.30859 4.24668,4.34868 9.62895,4.56399 2.3509,0.094 4.81523,0.035 5.47627,-0.13119 l 1.20191,-0.30218 v -24.35418 -24.35416 l 1.09525,-0.62667 c 1.53051,-0.87571 15.75018,-0.87571 17.28069,0 l 1.09526,0.62667 v 30.68989 30.68991 l -1.33865,0.68712 c -3.46481,1.77848 -17.09563,4.23721 -23.00036,4.14881 -1.74023,-0.0261 -5.24505,-0.31909 -7.78847,-0.65118 z"
       id="path316" />
    <path
       style="fill:#f2f2f2"
       d="m 324.40311,236.39594 c -1.81592,-0.19037 -3.54844,-0.59333 -3.85005,-0.89544 -0.81046,-0.81186 -1.29332,-7.81528 -1.33234,-19.32483 -0.019,-5.61138 -0.27724,-16.64172 -0.5738,-24.51186 -0.29656,-7.87015 -0.39773,-15.06478 -0.22482,-15.98806 0.27247,-1.45488 0.55528,-1.72993 2.12124,-2.063 2.5499,-0.54236 13.5465,-0.45451 16.16687,0.12916 l 2.1905,0.48792 0.14049,8.76393 c 0.22466,14.01398 -0.70541,50.69723 -1.31427,51.83682 -0.54591,1.02182 -1.67033,1.28363 -7.34486,1.71022 -1.47252,0.11071 -4.16304,0.0455 -5.97896,-0.14486 z"
       id="path355" />
    <path
       style="fill:#f2f2f2"
       d="m 321.68788,264.16878 c -3.02379,-0.71561 -3.20847,-1.2145 -3.38991,-9.1578 -0.11567,-5.06435 0.0268,-7.75216 0.4838,-9.1283 0.61078,-1.83915 0.80053,-1.98255 3.32504,-2.51295 6.08754,-1.27899 15.63604,-0.41772 16.66218,1.50292 0.32532,0.6089 0.54222,4.10106 0.55098,8.87094 0.0175,9.55669 -0.20202,10.1163 -4.1558,10.59192 -3.45339,0.41543 -11.43357,0.3167 -13.47629,-0.16673 z"
       id="path394" />
  </g>
</svg>
